<svg xmlns="http://www.w3.org/2000/svg" width="131" height="111" viewBox="0 0 131 111" fill="none">
<path fill-rule="evenodd" clip-rule="evenodd" d="M15.4844 22.1126C12.8586 22.0914 10.2723 22.7537 7.97988 24.0344V4.7648C7.97989 3.50453 7.48062 2.29558 6.59133 1.40258C5.70205 0.509573 4.4952 0.00525113 3.23493 0L0.141785 0V37.499C0.121303 39.5207 0.513195 41.5253 1.29352 43.3905C2.07385 45.2556 3.22622 46.9421 4.68026 48.3468C6.0805 49.7929 7.7606 50.9386 9.61812 51.7141C11.4756 52.4896 13.4717 52.8787 15.4844 52.8575H15.5321C17.5457 52.8561 19.5392 52.4569 21.3981 51.6828C23.257 50.9087 24.9446 49.775 26.3641 48.3468C27.816 46.9413 28.9659 45.2543 29.7435 43.3891C30.5212 41.5239 30.9101 39.5197 30.8867 37.499C30.9182 35.4792 30.5345 33.4745 29.7592 31.6091C28.984 29.7438 27.8338 28.0576 26.38 26.6551C24.9724 25.1912 23.2788 24.0326 21.4044 23.2511C19.5301 22.4697 17.515 22.0822 15.4844 22.1126ZM10.2471 32.218C10.9307 31.5243 11.7463 30.9747 12.6459 30.6017C13.5454 30.2286 14.5106 30.0397 15.4844 30.046C16.9572 30.0445 18.3973 30.4796 19.6228 31.2962C20.8484 32.1129 21.8043 33.2745 22.3699 34.6343C22.9355 35.9941 23.0853 37.491 22.8004 38.9359C22.5156 40.3808 21.8088 41.7088 20.7694 42.7522C20.0824 43.4544 19.2594 44.0092 18.3507 44.3827C17.442 44.7561 16.4667 44.9403 15.4844 44.9241C14.51 44.9329 13.5438 44.7454 12.6434 44.373C11.743 44.0005 10.9267 43.4507 10.2432 42.7561C8.868 41.347 8.09823 39.456 8.09823 37.4871C8.09823 35.5181 8.868 33.6272 10.2432 32.218H10.2471Z" fill="#D51F26"/>
<path fill-rule="evenodd" clip-rule="evenodd" d="M48.9095 29.9825V22.1762H48.5125C46.493 22.1823 44.4946 22.5871 42.6319 23.3674C42.1597 23.5664 41.6996 23.7931 41.2541 24.0463C41.253 23.5458 41.0534 23.066 40.6991 22.7125C40.3448 22.3589 39.8646 22.1603 39.364 22.1603H35.1154C34.6615 22.1603 34.2263 22.3406 33.9053 22.6615C33.5844 22.9825 33.4041 23.4178 33.4041 23.8716V52.8575H41.2422V37.0225C41.1927 36.1488 41.3792 35.2779 41.7822 34.5011L41.8139 34.4416C42.1679 33.5863 42.6905 32.8112 43.3506 32.1624C44.0128 31.4907 44.7971 30.9516 45.6615 30.5741C46.5556 30.1901 47.5196 29.9955 48.4926 30.0023L48.9095 29.9825Z" fill="#D51F26"/>
<path fill-rule="evenodd" clip-rule="evenodd" d="M81.8422 52.647V37.1972C81.873 35.1892 81.4918 33.1962 80.7221 31.3414C79.9524 29.4865 78.8107 27.8091 77.3673 26.4128C75.9559 24.9932 74.2777 23.8666 72.4293 23.0978C70.5809 22.3291 68.5988 21.9333 66.5969 21.9333C64.595 21.9333 62.6128 22.3291 60.7644 23.0978C58.9161 23.8666 57.2379 24.9932 55.8264 26.4128C54.3865 27.8117 53.2469 29.4896 52.4775 31.3438C51.7081 33.1981 51.3249 35.1898 51.3515 37.1972V52.647H53.9126C55.3195 52.646 56.6686 52.0869 57.6639 51.0924C58.6591 50.0979 59.2192 48.7492 59.2213 47.3422V37.4156C59.2115 36.3824 59.4097 35.3579 59.804 34.4029C60.1982 33.4479 60.7806 32.582 61.5164 31.8566C62.1899 31.1999 62.9869 30.6831 63.8613 30.3362C64.7357 29.9893 65.6702 29.8192 66.6108 29.8356C67.5412 29.8134 68.4668 29.9776 69.3328 30.3186C70.1988 30.6595 70.9879 31.1703 71.6535 31.8209C72.3956 32.5477 72.9834 33.4167 73.3819 34.376C73.7803 35.3352 73.9812 36.365 73.9724 37.4037V47.3303C73.9734 48.7369 74.5327 50.0856 75.5273 51.0802C76.5219 52.0749 77.8706 52.6341 79.2772 52.6351L81.8422 52.647Z" fill="#D51F26"/>
<path fill-rule="evenodd" clip-rule="evenodd" d="M60.353 15.0449L59.9559 15.2077C59.8698 15.2448 59.7932 15.3009 59.732 15.3719C59.6707 15.4429 59.6264 15.5268 59.6023 15.6175C59.5782 15.7081 59.575 15.803 59.5929 15.895C59.6109 15.987 59.6494 16.0738 59.7058 16.1487L59.952 16.4823C60.0248 16.5769 60.0686 16.6907 60.0779 16.8097C60.0872 16.9288 60.0617 17.0479 60.0044 17.1528C59.9472 17.2576 59.8607 17.3434 59.7555 17.3999C59.6503 17.4564 59.5309 17.4811 59.4119 17.471L59.0149 17.4233C58.9217 17.4118 58.8272 17.4217 58.7385 17.4521C58.6497 17.4825 58.569 17.5327 58.5024 17.5988C58.4359 17.665 58.3853 17.7454 58.3544 17.834C58.3234 17.9226 58.313 18.017 58.324 18.1102L58.3716 18.5073C58.3863 18.6276 58.3653 18.7496 58.3113 18.8582C58.2573 18.9667 58.1726 19.057 58.0678 19.1179C57.9629 19.1787 57.8426 19.2075 57.7215 19.2006C57.6005 19.1937 57.4841 19.1515 57.3869 19.0791L57.0573 18.8289C56.9819 18.7735 56.8949 18.7357 56.8028 18.7185C56.7108 18.7013 56.616 18.705 56.5256 18.7294C56.4352 18.7538 56.3515 18.7983 56.2806 18.8595C56.2097 18.9207 56.1536 18.9971 56.1163 19.0831L55.9535 19.4801C55.9067 19.5972 55.8254 19.6971 55.7204 19.7667C55.6153 19.8363 55.4915 19.8723 55.3655 19.8697C55.2395 19.8671 55.1173 19.8261 55.0152 19.7523C54.9131 19.6784 54.8359 19.5751 54.7941 19.4563L54.6313 19.0592C54.594 18.9733 54.5378 18.8969 54.4669 18.8357C54.3961 18.7745 54.3123 18.73 54.2219 18.7056C54.1315 18.6812 54.0368 18.6774 53.9447 18.6947C53.8527 18.7119 53.7657 18.7496 53.6902 18.8051L53.3567 19.0553C53.2594 19.1276 53.1431 19.1699 53.022 19.1768C52.901 19.1837 52.7806 19.1549 52.6758 19.094C52.571 19.0332 52.4863 18.9429 52.4323 18.8343C52.3783 18.7258 52.3573 18.6038 52.3719 18.4835L52.4196 18.0864C52.4312 17.9934 52.4214 17.899 52.391 17.8104C52.3606 17.7218 52.3103 17.6413 52.2441 17.575C52.1778 17.5088 52.0973 17.4585 52.0087 17.4281C51.9201 17.3977 51.8256 17.3879 51.7327 17.3995L51.3356 17.4471C51.2153 17.4618 51.0933 17.4408 50.9847 17.3868C50.8762 17.3328 50.7859 17.2481 50.725 17.1433C50.6642 17.0385 50.6354 16.9181 50.6423 16.797C50.6492 16.676 50.6914 16.5597 50.7638 16.4624L51.014 16.1289C51.0694 16.0534 51.1072 15.9664 51.1244 15.8744C51.1416 15.7823 51.1379 15.6876 51.1135 15.5972C51.0891 15.5068 51.0446 15.423 50.9834 15.3521C50.9222 15.2813 50.8458 15.2251 50.7599 15.1878L50.3628 15.025C50.2511 14.9774 50.1559 14.898 50.0889 14.7967C50.022 14.6954 49.9863 14.5767 49.9863 14.4552C49.9863 14.3338 50.022 14.2151 50.0889 14.1138C50.1559 14.0125 50.2511 13.9331 50.3628 13.8854L50.7599 13.7227C50.8463 13.686 50.9233 13.6301 50.9849 13.5593C51.0466 13.4885 51.0914 13.4046 51.1158 13.3139C51.1403 13.2233 51.1439 13.1283 51.1262 13.036C51.1086 12.9438 51.0702 12.8568 51.014 12.7816L50.7638 12.452C50.6914 12.3548 50.6492 12.2384 50.6423 12.1174C50.6354 11.9964 50.6642 11.876 50.725 11.7712C50.7859 11.6663 50.8762 11.5817 50.9847 11.5276C51.0933 11.4736 51.2153 11.4527 51.3356 11.4673L51.7327 11.515C51.8234 11.5241 51.915 11.5131 52.001 11.4827C52.087 11.4523 52.1652 11.4033 52.2301 11.3392C52.2949 11.2751 52.3448 11.1975 52.3762 11.1119C52.4076 11.0262 52.4197 10.9347 52.4117 10.8439L52.364 10.4468C52.3503 10.3268 52.3719 10.2054 52.4263 10.0975C52.4806 9.98967 52.5653 9.90005 52.67 9.83971C52.7746 9.77937 52.8946 9.75094 53.0152 9.75793C53.1358 9.76492 53.2518 9.80702 53.3487 9.87904L53.6823 10.1252C53.7572 10.1816 53.844 10.2201 53.936 10.2381C54.028 10.256 54.1229 10.2528 54.2135 10.2287C54.3041 10.2046 54.3881 10.1603 54.4591 10.099C54.5301 10.0378 54.5862 9.96118 54.6233 9.87507L54.7861 9.47801C54.8337 9.36632 54.9131 9.27108 55.0144 9.20415C55.1157 9.13722 55.2345 9.10153 55.3559 9.10153C55.4773 9.10153 55.5961 9.13722 55.6974 9.20415C55.7987 9.27108 55.8781 9.36632 55.9257 9.47801L56.0885 9.87507C56.1256 9.96118 56.1817 10.0378 56.2527 10.099C56.3237 10.1603 56.4077 10.2046 56.4983 10.2287C56.5889 10.2528 56.6838 10.256 56.7758 10.2381C56.8678 10.2201 56.9546 10.1816 57.0295 10.1252L57.3591 9.87904C57.4549 9.80009 57.5721 9.75172 57.6957 9.74021C57.8193 9.7287 57.9435 9.75458 58.0522 9.81449C58.1609 9.8744 58.249 9.96558 58.3053 10.0762C58.3616 10.1868 58.3833 10.3118 58.3677 10.4349L58.32 10.832C58.3084 10.9255 58.3183 11.0204 58.3489 11.1095C58.3796 11.1986 58.4301 11.2796 58.4967 11.3462C58.5633 11.4128 58.6443 11.4633 58.7334 11.494C58.8225 11.5246 58.9174 11.5345 59.0109 11.5229L59.408 11.4753C59.5286 11.4596 59.6511 11.48 59.7601 11.5339C59.8691 11.5878 59.9597 11.6728 60.0205 11.7781C60.0812 11.8835 60.1094 12.0045 60.1014 12.1258C60.0935 12.2472 60.0498 12.3635 59.9758 12.46L59.7296 12.7895C59.6733 12.8645 59.6347 12.9513 59.6168 13.0433C59.5988 13.1353 59.602 13.2302 59.6261 13.3208C59.6502 13.4114 59.6946 13.4954 59.7558 13.5664C59.8171 13.6374 59.8936 13.6935 59.9797 13.7306L60.3768 13.8934C60.4913 13.9415 60.5886 14.0229 60.6562 14.127C60.7239 14.2311 60.7586 14.3531 60.7561 14.4772C60.7535 14.6013 60.7137 14.7218 60.6418 14.823C60.57 14.9243 60.4693 15.0016 60.353 15.0449Z" fill="#D51F26"/>
<path fill-rule="evenodd" clip-rule="evenodd" d="M81.7946 65.9925V58.1861H81.3975C79.378 58.1923 77.3797 58.5971 75.517 59.3773C75.0431 59.5756 74.5817 59.8023 74.1352 60.0563C74.1352 59.5561 73.9365 59.0764 73.5828 58.7227C73.229 58.369 72.7493 58.1703 72.2491 58.1703H67.9926C67.7675 58.1697 67.5445 58.2136 67.3364 58.2994C67.1283 58.3852 66.9392 58.5111 66.7799 58.6701C66.6205 58.8291 66.4941 59.0179 66.4079 59.2258C66.3216 59.4337 66.2772 59.6565 66.2772 59.8816V88.8675H74.1153V73.0325C74.0648 72.1582 74.2529 71.2867 74.6593 70.5111L74.6871 70.4515C75.0415 69.5942 75.564 68.8166 76.2237 68.1644C76.8902 67.4905 77.6802 66.9513 78.5506 66.5762C79.4485 66.1855 80.4182 65.9867 81.3975 65.9925H81.7946Z" fill="#D51F26"/>
<path fill-rule="evenodd" clip-rule="evenodd" d="M15.3534 88.8873C12.7225 88.9104 10.1313 88.2452 7.83694 86.9576V106.255C7.83171 107.512 7.33012 108.716 6.4414 109.604C5.55268 110.493 4.34882 110.995 3.09199 111H-0.00115925V73.501C-0.0216414 71.4793 0.37025 69.4747 1.15058 67.6096C1.9309 65.7444 3.08328 64.0579 4.53731 62.6531C5.9394 61.2051 7.62208 60.0583 9.48249 59.2827C11.3429 58.5072 13.3419 58.1192 15.3574 58.1425H15.405C17.4185 58.145 19.4117 58.5447 21.2704 59.3187C23.1291 60.0927 24.8169 61.2258 26.237 62.6531C27.6655 64.0751 28.7991 65.7652 29.5726 67.6265C30.3461 69.4877 30.7443 71.4834 30.7443 73.499C30.7443 75.5146 30.3461 77.5103 29.5726 79.3716C28.7991 81.2329 27.6655 82.923 26.237 84.3449C24.8309 85.8073 23.1392 86.9651 21.267 87.7465C19.3948 88.5279 17.3819 88.9162 15.3534 88.8873ZM10.1042 78.782C10.7891 79.4771 11.6067 80.0275 12.5084 80.4006C13.4101 80.7737 14.3776 80.9619 15.3534 80.954C16.3448 80.9769 17.3307 80.8014 18.2533 80.4378C19.1759 80.0743 20.0165 79.53 20.7258 78.8369C21.435 78.1439 21.9986 77.3161 22.3833 76.4021C22.7681 75.4882 22.9663 74.5065 22.9663 73.5149C22.9663 72.5233 22.7681 71.5416 22.3833 70.6277C21.9986 69.7138 21.435 68.8859 20.7258 68.1929C20.0165 67.4998 19.1759 66.9555 18.2533 66.592C17.3307 66.2284 16.3448 66.053 15.3534 66.0759C14.379 66.0671 13.4128 66.2546 12.5124 66.627C11.6119 66.9995 10.7956 67.5493 10.1121 68.2438C8.73696 69.653 7.9672 71.544 7.9672 73.5129C7.9672 75.4819 8.73696 77.3728 10.1121 78.782H10.1042Z" fill="#D51F26"/>
<path fill-rule="evenodd" clip-rule="evenodd" d="M59.2491 62.2759C57.8503 60.8556 56.183 59.7276 54.3442 58.9577C52.5054 58.1878 50.5318 57.7913 48.5383 57.7913C46.5448 57.7913 44.5712 58.1878 42.7323 58.9577C40.8935 59.7276 39.2262 60.8556 37.8274 62.2759C35.7172 64.3933 34.2807 67.0877 33.6987 70.0199C33.1167 72.952 33.4152 75.9908 34.5568 78.7537C35.6983 81.5165 37.6318 83.8797 40.1138 85.5459C42.5957 87.2121 45.5152 88.1067 48.5045 88.117C51.1457 88.1437 53.7474 87.4754 56.0488 86.1794V86.4772C56.0488 87.4944 56.4529 88.4701 57.1722 89.1894C57.8916 89.9087 58.8672 90.3128 59.8845 90.3128C60.9017 90.3128 61.8773 89.9087 62.5967 89.1894C63.316 88.4701 63.7201 87.4944 63.7201 86.4772V72.9531C63.7489 70.9634 63.3687 68.989 62.603 67.1524C61.8373 65.3157 60.7026 63.656 59.269 62.2759H59.2491ZM55.9336 72.9531C55.927 74.4162 55.4881 75.8448 54.6723 77.0593C53.8565 78.2739 52.7 79.2204 51.348 79.7799C49.9961 80.3395 48.509 80.4871 47.0734 80.2043C45.6378 79.9215 44.3178 79.2209 43.2791 78.1904C42.5946 77.5017 42.0531 76.6844 41.6858 75.7855C41.3185 74.8867 41.1326 73.924 41.1389 72.9531C41.139 71.4893 41.5731 70.0584 42.3864 68.8413C43.1997 67.6242 44.3556 66.6756 45.7079 66.1155C47.0603 65.5553 48.5484 65.4088 49.9841 65.6943C51.4197 65.9799 52.7385 66.6847 53.7736 67.7197C54.4711 68.3989 55.0225 69.2135 55.3939 70.1134C55.7653 71.0133 55.949 71.9796 55.9336 72.9531Z" fill="#D51F26"/>
<path fill-rule="evenodd" clip-rule="evenodd" d="M59.1896 23.2959C59.1896 22.5653 58.3438 21.9737 57.2995 21.9737H53.0628C52.1178 21.9737 51.3515 22.5097 51.3515 23.1649V43.5264H59.1896V23.276V23.2959Z" fill="#D51F26"/>
<path fill-rule="evenodd" clip-rule="evenodd" d="M99.3449 73.1317V86.2588C99.3428 86.8707 99.0986 87.4568 98.6655 87.8891C98.2325 88.3214 97.6459 88.5647 97.034 88.5657H88.6678C88.0559 88.5647 87.4693 88.3214 87.0363 87.8891C86.6033 87.4568 86.359 86.8707 86.3569 86.2588V24.1575C86.3564 23.8535 86.4157 23.5524 86.5316 23.2713C86.6474 22.9903 86.8175 22.7348 87.0321 22.5195C87.2467 22.3042 87.5016 22.1332 87.7822 22.0164C88.0629 21.8996 88.3638 21.8392 88.6678 21.8387H97.034C97.6466 21.8397 98.2338 22.0835 98.6669 22.5167C99.1001 22.9498 99.3439 23.537 99.3449 24.1496V52.7702L113.703 39.4168C114.129 39.0079 114.701 38.7851 115.291 38.7974H126.989C127.454 38.7946 127.909 38.9323 128.295 39.1926C128.681 39.4528 128.979 39.8234 129.15 40.2559C129.322 40.6884 129.359 41.1626 129.257 41.6165C129.155 42.0704 128.918 42.4828 128.577 42.7998L106.977 62.8914L129.355 84.599C129.686 84.9192 129.913 85.3308 130.008 85.7811C130.103 86.2313 130.062 86.6997 129.889 87.1262C129.716 87.5528 129.42 87.918 129.039 88.1752C128.657 88.4324 128.207 88.5697 127.747 88.5697H116.276C115.981 88.5728 115.689 88.5171 115.417 88.406C115.144 88.2949 114.896 88.1305 114.688 87.9225L99.3449 73.1317Z" fill="#FFC609"/>
</svg>
