<svg width="24" height="24" viewBox="0 0 24 24" fill="none" xmlns="http://www.w3.org/2000/svg">
<path d="M10.9928 21.7157C11.2966 21.8911 11.6413 21.9834 11.9921 21.9834C12.3429 21.9834 12.6876 21.8911 12.9914 21.7157L19.9868 17.7183C20.2904 17.5431 20.5425 17.2911 20.7179 16.9876C20.8933 16.6842 20.9858 16.3399 20.9862 15.9894V7.99472C20.9858 7.64423 20.8933 7.29999 20.7179 6.99654C20.5425 6.6931 20.2904 6.44111 19.9868 6.26586L12.9914 2.2685C12.6876 2.09308 12.3429 2.00073 11.9921 2.00073C11.6413 2.00073 11.2966 2.09308 10.9928 2.2685L3.99739 6.26586C3.69385 6.44111 3.44173 6.6931 3.26633 6.99654C3.09093 7.29999 2.99841 7.64423 2.99805 7.99472V15.9894C2.99841 16.3399 3.09093 16.6842 3.26633 16.9876C3.44173 17.2911 3.69385 17.5431 3.99739 17.7183L10.9928 21.7157Z" stroke="#00A63E" stroke-width="1.99868" stroke-linecap="round" stroke-linejoin="round"/>
<path d="M11.9922 21.9855V11.9921" stroke="#00A63E" stroke-width="1.99868" stroke-linecap="round" stroke-linejoin="round"/>
<path d="M3.28784 6.99536L11.9921 11.9921L20.6963 6.99536" stroke="#00A63E" stroke-width="1.99868" stroke-linecap="round" stroke-linejoin="round"/>
<path d="M7.49512 4.26721L16.4892 9.41381" stroke="#00A63E" stroke-width="1.99868" stroke-linecap="round" stroke-linejoin="round"/>
</svg>
