<svg width="24" height="24" viewBox="0 0 24 24" fill="none" xmlns="http://www.w3.org/2000/svg">
<path d="M13.9909 17.9881V5.99599C13.9909 5.46591 13.7803 4.95754 13.4055 4.58271C13.0306 4.20789 12.5223 3.99731 11.9922 3.99731H3.99746C3.46738 3.99731 2.959 4.20789 2.58418 4.58271C2.20935 4.95754 1.99878 5.46591 1.99878 5.99599V16.9887C1.99878 17.2538 2.10407 17.508 2.29148 17.6954C2.47889 17.8828 2.73308 17.9881 2.99812 17.9881H4.9968" stroke="#00A63E" stroke-width="1.99868" stroke-linecap="round" stroke-linejoin="round"/>
<path d="M14.9902 17.9882H8.99414" stroke="#00A63E" stroke-width="1.99868" stroke-linecap="round" stroke-linejoin="round"/>
<path d="M18.9874 17.9881H20.9861C21.2511 17.9881 21.5053 17.8829 21.6927 17.6955C21.8802 17.508 21.9854 17.2539 21.9854 16.9888V13.3412C21.985 13.1144 21.9075 12.8945 21.7656 12.7176L18.2879 8.3705C18.1944 8.25346 18.0758 8.15892 17.9409 8.09388C17.806 8.02884 17.6582 7.99496 17.5084 7.99475H13.9907" stroke="#00A63E" stroke-width="1.99868" stroke-linecap="round" stroke-linejoin="round"/>
<path d="M16.9887 19.9867C18.0925 19.9867 18.9873 19.0919 18.9873 17.9881C18.9873 16.8842 18.0925 15.9894 16.9887 15.9894C15.8848 15.9894 14.99 16.8842 14.99 17.9881C14.99 19.0919 15.8848 19.9867 16.9887 19.9867Z" stroke="#00A63E" stroke-width="1.99868" stroke-linecap="round" stroke-linejoin="round"/>
<path d="M6.99526 19.9867C8.0991 19.9867 8.99394 19.0919 8.99394 17.9881C8.99394 16.8842 8.0991 15.9894 6.99526 15.9894C5.89142 15.9894 4.99658 16.8842 4.99658 17.9881C4.99658 19.0919 5.89142 19.9867 6.99526 19.9867Z" stroke="#00A63E" stroke-width="1.99868" stroke-linecap="round" stroke-linejoin="round"/>
</svg>
